<?xml version="1.0" standalone="no"?>
<!DOCTYPE svg PUBLIC "-//W3C//DTD SVG 20010904//EN"
 "http://www.w3.org/TR/2001/REC-SVG-20010904/DTD/svg10.dtd">
<svg version="1.0" xmlns="http://www.w3.org/2000/svg"
 width="1024.000000pt" height="1024.000000pt" viewBox="0 0 1024.000000 1024.000000"
 preserveAspectRatio="xMidYMid meet">
<metadata>
Created by potrace 1.14, written by Peter Selinger 2001-2017
</metadata>
<g transform="translate(0.000000,1024.000000) scale(0.100000,-0.100000)"
fill="#000000" stroke="none">
<path d="M527 8233 c4 -9 -4 -13 -27 -13 -17 0 -29 -4 -25 -10 3 -5 13 -6 22
-3 11 4 14 3 9 -5 -4 -7 -2 -12 3 -12 6 0 10 -5 9 -11 -2 -6 8 -18 22 -27 24
-16 25 -16 10 3 -9 11 -10 16 -2 11 7 -4 15 -1 18 8 3 9 13 16 22 16 13 0 13
-2 -3 -14 -11 -8 -16 -19 -12 -30 6 -14 2 -18 -20 -15 -4 0 -10 -8 -14 -18 -5
-14 -8 -11 -14 15 -4 18 -13 36 -21 39 -8 3 -11 9 -8 14 3 5 0 9 -6 9 -7 0 -9
-8 -5 -20 4 -11 3 -20 -2 -19 -30 5 -44 -2 -38 -21 11 -36 -11 -21 -25 18 -22
54 -23 59 -11 42 8 -12 11 -12 11 -1 0 11 3 11 15 1 8 -7 15 -11 16 -9 6 31 6
40 -1 44 -4 3 -13 -2 -20 -10 -6 -7 -18 -11 -25 -9 -19 8 -57 -15 -49 -28 4
-6 3 -8 -4 -5 -14 10 -43 -3 -36 -15 4 -6 10 -5 15 3 7 11 9 11 9 1 0 -10 5
-10 20 -2 11 6 18 15 15 20 -3 5 -1 11 4 15 6 3 8 -6 5 -22 -3 -19 -1 -24 5
-14 5 8 11 9 15 3 3 -6 -6 -23 -20 -39 -25 -25 -27 -26 -22 -6 8 30 -19 35
-55 10 -15 -10 -26 -15 -25 -10 2 4 -1 8 -7 8 -5 0 -9 -6 -7 -12 2 -7 -2 -13
-8 -13 -6 0 -9 4 -5 9 3 5 -4 16 -16 24 -11 9 -16 18 -10 21 5 4 12 2 16 -4 8
-13 25 -3 25 13 0 8 -3 7 -9 -2 -7 -11 -11 -10 -20 6 -5 11 -9 22 -7 24 2 2
-2 9 -9 16 -11 10 -13 6 -11 -20 3 -48 -8 -64 -45 -63 -22 1 -33 6 -35 19 -3
19 4 21 26 8 8 -6 18 -7 23 -4 5 3 4 9 -3 13 -7 4 -9 13 -5 20 6 9 9 9 16 -1
6 -10 8 -7 6 8 -1 21 -1 21 -25 2 -25 -19 -47 -26 -38 -11 2 4 -5 9 -16 9 -11
1 -29 11 -40 22 -22 25 -30 27 -22 6 4 -8 1 -15 -5 -15 -6 0 -11 5 -11 10 0
16 -27 12 -34 -5 -3 -8 -1 -15 5 -15 6 0 8 -4 5 -8 -3 -5 1 -9 9 -9 8 0 15 5
15 10 0 5 8 6 18 2 9 -4 27 -8 39 -9 12 -1 25 -5 29 -9 4 -3 -3 -5 -15 -2 -13
2 -21 -1 -21 -11 0 -8 -7 -14 -15 -14 -8 0 -15 -4 -15 -10 0 -5 -5 -10 -11
-10 -6 0 -8 9 -4 20 5 17 2 20 -21 20 -22 0 -25 -3 -16 -12 15 -15 16 -58 2
-58 -7 0 -10 -1355 -10 -4045 l0 -4045 5120 0 5120 0 0 4033 c0 3213 -3 4036
-12 4046 -7 8 -8 11 -2 8 8 -4 11 5 10 28 0 19 -4 35 -8 35 -6 0 -4 45 4 70 3
8 3 12 1 7 -3 -4 -10 -4 -16 0 -21 13 -36 11 -30 -3 3 -8 0 -14 -7 -14 -7 0
-19 -8 -27 -17 -12 -15 -14 -15 -10 -2 3 9 -1 16 -8 16 -10 0 -11 -5 -4 -18
14 -26 11 -28 -15 -16 -17 8 -21 14 -13 20 7 5 3 7 -10 4 -13 -3 -26 0 -30 5
-3 7 -1 8 5 4 7 -4 12 -3 12 3 0 6 8 8 18 5 15 -5 15 -4 -1 6 -13 9 -22 9 -32
0 -7 -6 -16 -7 -18 -3 -3 5 -22 8 -41 8 -20 -1 -36 3 -36 9 0 6 -7 3 -15 -7
-10 -15 -21 -17 -44 -12 -17 4 -31 11 -31 17 0 6 -6 6 -15 -2 -20 -17 -19 -33
5 -48 25 -15 26 -34 3 -25 -23 8 -14 -1 16 -17 21 -11 23 -10 18 4 -4 9 -2 16
3 16 6 0 10 -8 11 -17 0 -10 3 -13 5 -6 3 7 0 22 -6 34 -10 17 -14 19 -21 8
-6 -11 -9 -10 -15 4 -10 26 1 30 35 13 21 -12 37 -13 54 -7 14 6 28 7 33 3 4
-4 4 -1 0 6 -4 7 -1 12 8 12 9 0 19 0 23 1 4 0 9 -5 12 -12 2 -8 -1 -9 -10 -3
-11 6 -10 3 1 -11 14 -17 13 -18 -10 -12 l-25 6 24 -18 c25 -19 22 -44 -4 -34
-11 4 -15 -2 -15 -23 0 -32 -5 -30 -14 8 -5 24 -4 26 21 23 25 -2 26 -2 8 11
-16 12 -21 12 -35 -1 -19 -17 -34 -20 -25 -5 3 6 0 10 -7 10 -9 0 -9 3 2 10
13 8 12 10 -4 10 -13 0 -17 -5 -14 -18 3 -12 -2 -24 -14 -31 -11 -7 -16 -17
-12 -24 4 -7 4 -9 -1 -5 -4 4 -13 3 -20 -2 -8 -7 -12 -5 -12 5 0 7 3 13 6 12
3 -1 7 2 9 8 7 21 -19 15 -28 -7 -10 -23 -11 -23 -6 0 3 14 -1 22 -10 22 -8 0
-13 -5 -12 -11 2 -6 -4 -14 -12 -16 -13 -4 -13 -3 0 6 12 8 10 12 -10 19 -14
5 -28 8 -31 6 -4 -2 -9 3 -12 11 -4 9 -1 12 7 9 8 -3 17 -1 21 5 4 7 -3 11
-17 11 -14 0 -33 6 -44 14 -15 12 -17 17 -7 27 7 7 13 17 13 23 0 5 -9 -1 -20
-14 -13 -15 -20 -18 -20 -9 0 9 -12 14 -35 15 -35 1 -47 -9 -21 -19 7 -3 20 0
27 6 8 8 8 5 -1 -7 -14 -18 -13 -19 3 -13 9 3 17 2 17 -3 0 -15 -20 -22 -34
-11 -7 6 -17 7 -21 3 -5 -4 -5 -1 -1 6 4 6 2 12 -3 12 -6 0 -11 -6 -11 -14 0
-20 50 -26 75 -10 19 13 24 12 40 -6 19 -21 19 -21 -8 -16 -19 3 -27 0 -27
-10 0 -8 -10 -19 -22 -24 -18 -7 -19 -9 -5 -9 9 -1 17 -5 17 -10 0 -5 -9 -7
-20 -4 -11 3 -20 11 -20 17 0 7 -15 12 -35 13 -19 1 -35 -3 -35 -7 0 -4 -8 -7
-17 -6 -10 0 -17 -5 -15 -11 1 -7 -2 -13 -8 -13 -5 0 -10 5 -10 10 0 7 -8 7
-22 -1 -13 -6 -20 -8 -16 -4 4 5 3 14 -3 22 -9 9 -8 13 0 13 6 0 11 -4 11 -10
0 -5 5 -10 10 -10 6 0 8 10 5 23 -5 18 0 24 24 34 18 6 33 7 37 2 3 -5 -4 -9
-15 -9 -14 0 -19 -5 -14 -15 7 -19 38 -16 38 3 0 7 7 17 15 22 12 8 10 10 -9
10 -19 0 -23 4 -19 23 3 17 0 23 -14 23 -11 0 -16 -6 -14 -13 3 -7 -1 -10 -10
-6 -8 3 -14 2 -13 -3 4 -16 -24 -64 -36 -64 -7 0 -15 -9 -18 -20 -3 -11 -11
-20 -19 -19 -10 0 -10 2 0 6 6 2 10 9 7 13 -3 5 -13 6 -22 3 -10 -4 -14 -2
-11 8 2 7 -6 23 -19 35 -25 24 -29 39 -11 50 8 5 9 2 5 -9 -3 -10 -2 -17 2
-17 11 0 19 21 14 36 -5 14 -43 6 -43 -8 0 -5 -10 -8 -22 -6 -14 2 -22 -2 -20
-9 1 -7 -4 -13 -10 -13 -10 0 -10 -2 -1 -8 8 -5 8 -13 -2 -32 -8 -14 -14 -19
-15 -12 0 6 -5 12 -11 12 -5 0 -8 -3 -6 -7 3 -5 -10 -8 -28 -9 -20 0 -31 4
-28 9 4 6 1 7 -7 2 -9 -6 -11 -4 -5 4 4 7 18 11 30 9 18 -4 22 -1 17 10 -3 10
-1 13 6 8 8 -5 10 -1 5 11 -6 16 -5 17 12 3 10 -8 16 -10 12 -3 -4 6 -3 13 1
15 5 1 0 12 -10 23 -16 16 -18 17 -13 2 6 -13 2 -17 -16 -18 -13 0 -18 -3 -11
-6 6 -2 12 -8 12 -13 0 -9 -62 11 -82 27 -11 10 -14 8 -15 -8 -1 -14 5 -19 23
-19 15 0 24 -6 24 -16 0 -8 -4 -13 -8 -10 -4 2 -14 0 -22 -6 -12 -8 -12 -9 3
-4 23 7 22 -11 -3 -24 -12 -6 -17 -17 -14 -28 5 -16 5 -16 -6 0 -6 10 -10 24
-9 30 4 33 -2 68 -12 68 -5 0 -7 -6 -3 -12 4 -7 -1 -5 -11 4 -14 13 -16 20 -7
31 9 11 8 14 -3 14 -8 0 -12 -4 -9 -9 3 -4 -2 -8 -10 -8 -9 0 -15 5 -14 11 2
6 -3 13 -10 14 -7 2 -8 1 -2 -2 5 -2 7 -9 4 -14 -3 -6 -12 -5 -22 3 -13 11
-14 11 -7 -1 6 -11 4 -13 -7 -8 -11 4 -15 1 -13 -11 2 -9 4 -20 4 -25 1 -4 4
-6 9 -6 20 3 23 -2 11 -18 -13 -15 -12 -15 9 -4 l23 12 -21 19 -22 19 32 -1
c30 -1 57 -28 42 -42 -3 -4 1 -4 10 -1 22 9 31 -22 10 -35 -15 -8 -15 -11 -2
-20 9 -6 10 -10 3 -10 -19 0 -26 20 -13 35 10 12 9 15 -8 15 -16 0 -20 5 -15
18 4 11 0 10 -11 -5 -10 -13 -24 -23 -32 -23 -9 0 -13 -5 -9 -12 4 -7 -1 -4
-9 6 -9 11 -16 14 -16 8 0 -10 -3 -10 -14 0 -13 11 -13 14 0 24 14 11 19 34 8
34 -4 0 -17 -10 -29 -22 -22 -23 -53 -49 -70 -60 -6 -3 -10 5 -10 18 0 18 6
24 21 24 32 0 62 40 53 70 -5 17 -7 19 -8 7 -1 -10 -5 -16 -9 -13 -5 3 -9 -1
-9 -9 0 -8 4 -15 9 -15 5 0 3 -7 -6 -15 -17 -17 -30 -20 -21 -5 3 6 1 10 -6
10 -8 0 -7 5 2 18 13 15 12 16 -3 3 -10 -7 -15 -17 -12 -22 3 -5 -2 -6 -10 -3
-14 6 -21 -5 -17 -28 0 -5 -3 -8 -9 -8 -5 0 -7 -6 -4 -14 3 -8 0 -17 -7 -22
-9 -5 -10 -2 -6 10 6 14 3 17 -9 12 -14 -5 -15 -4 -5 8 10 11 4 12 -36 5 -26
-5 -54 -7 -61 -4 -7 3 -10 1 -7 -4 3 -5 0 -13 -6 -16 -6 -5 -9 0 -7 11 1 11
-1 21 -6 24 -14 8 -16 -33 -3 -49 7 -8 -2 -5 -20 7 l-32 23 -18 -21 c-10 -11
-22 -20 -27 -20 -6 0 -5 5 2 12 19 19 14 30 -7 18 -17 -9 -19 -7 -15 12 3 13
6 29 6 35 1 8 10 10 27 6 35 -8 42 -13 36 -23 -3 -4 2 -11 11 -14 8 -3 13 -2
9 3 -3 5 0 15 7 23 17 18 21 38 7 38 -6 0 -9 7 -5 15 4 12 2 13 -13 6 -10 -6
-28 -8 -40 -6 -11 2 -21 -1 -21 -6 0 -5 6 -9 13 -8 36 4 57 -2 57 -18 0 -15
-2 -16 -10 -3 -7 11 -10 11 -10 2 0 -10 -5 -10 -22 -1 -13 7 -24 12 -25 11 -9
-6 -23 -1 -19 6 3 5 0 9 -7 10 -7 0 -28 4 -47 7 l-35 6 35 -18 c36 -18 48 -46
31 -72 -8 -13 -12 -13 -27 0 -11 9 -15 9 -10 2 4 -8 2 -13 -6 -13 -10 0 -10
-2 1 -9 8 -5 9 -11 3 -15 -6 -3 -17 13 -25 36 l-15 43 3 -40 c3 -34 0 -41 -15
-41 -10 0 -16 4 -14 8 3 4 0 8 -7 8 -8 0 -8 4 1 15 9 10 9 15 1 15 -6 0 -11
-4 -11 -9 0 -6 -18 -9 -40 -8 -22 2 -40 2 -40 0 0 -1 7 -9 16 -17 8 -9 11 -16
5 -16 -5 0 -13 5 -16 10 -4 6 -11 8 -16 5 -5 -4 -9 -1 -9 6 0 7 -6 5 -13 -6
-11 -14 -16 -15 -22 -5 -5 9 -4 11 3 6 7 -4 12 -3 12 2 0 11 -30 26 -44 23
-18 -4 -56 9 -56 20 0 6 7 9 15 5 9 -3 15 0 15 9 0 26 -4 30 -27 27 -13 -1
-23 2 -23 8 0 6 -4 9 -9 6 -5 -4 -7 2 -4 12 3 12 -1 19 -10 19 -9 0 -13 -6
-10 -14 4 -9 -4 -13 -27 -13 -17 0 -29 -4 -25 -10 3 -5 13 -6 22 -3 11 4 14 3
9 -5 -4 -7 -2 -12 3 -12 6 0 10 -5 9 -11 -2 -6 8 -18 22 -27 24 -16 25 -16 10
3 -9 11 -10 16 -2 11 7 -4 15 -1 18 8 3 9 13 16 22 16 13 0 13 -2 -3 -14 -11
-8 -16 -19 -12 -30 6 -14 2 -18 -20 -15 -4 0 -10 -8 -14 -18 -5 -14 -8 -11
-14 15 -4 18 -13 36 -21 39 -8 3 -11 9 -8 14 3 5 0 9 -6 9 -7 0 -9 -8 -5 -20
4 -11 3 -20 -2 -19 -30 5 -44 -2 -38 -21 11 -36 -11 -21 -25 18 -22 54 -23 59
-11 42 8 -12 11 -12 11 -1 0 11 3 11 15 1 8 -7 15 -11 16 -9 6 31 6 40 -1 44
-4 3 -13 -2 -20 -10 -6 -7 -18 -11 -25 -9 -19 8 -57 -15 -49 -28 4 -6 3 -8 -4
-5 -14 10 -43 -3 -36 -15 4 -6 10 -5 15 3 7 11 9 11 9 1 0 -10 5 -10 20 -2 11
6 18 15 15 20 -3 5 -1 11 4 15 6 3 8 -6 5 -22 -3 -19 -1 -24 5 -14 5 8 11 9
15 3 3 -6 -6 -23 -20 -39 -25 -25 -27 -26 -22 -6 8 30 -19 35 -55 10 -15 -10
-26 -14 -25 -9 2 6 -1 10 -7 10 -5 1 -9 -6 -7 -14 2 -8 -2 -14 -8 -14 -6 0 -9
4 -5 9 3 5 -4 16 -16 24 -11 9 -16 18 -10 21 5 4 12 2 16 -4 8 -13 25 -3 25
13 0 8 -3 7 -9 -2 -7 -11 -11 -10 -20 6 -5 11 -9 22 -7 24 2 2 -2 9 -9 16 -11
10 -13 6 -11 -20 3 -48 -8 -64 -45 -63 -22 1 -33 6 -35 19 -3 19 4 21 26 8 8
-6 18 -7 23 -4 5 3 4 9 -3 13 -7 4 -9 13 -5 20 6 9 9 9 16 -1 6 -10 8 -7 6 8
-1 21 -1 21 -25 2 -25 -19 -47 -26 -38 -11 2 4 -5 9 -16 9 -11 1 -29 11 -40
22 -22 25 -30 27 -22 6 4 -8 1 -15 -5 -15 -6 0 -11 5 -11 10 0 17 -25 11 -37
-10 -11 -16 -10 -18 4 -13 10 4 14 2 10 -4 -3 -5 0 -10 8 -10 8 0 15 5 15 10
0 5 8 6 18 2 9 -4 27 -8 39 -9 12 -1 25 -5 29 -9 4 -3 -3 -5 -15 -2 -13 2 -21
-1 -21 -11 0 -8 -7 -14 -15 -14 -8 0 -15 -4 -15 -10 0 -5 -5 -10 -11 -10 -6 0
-8 9 -4 20 5 17 2 20 -21 20 -22 0 -25 -3 -16 -12 14 -14 16 -58 3 -58 -15 0
-23 18 -11 25 5 3 10 12 10 18 0 7 -4 6 -11 -3 -9 -13 -10 -12 -5 3 3 9 1 17
-3 17 -9 0 -8 41 1 70 3 8 3 12 1 7 -3 -4 -10 -4 -16 0 -21 13 -36 11 -30 -3
3 -8 0 -14 -7 -14 -7 0 -19 -8 -27 -17 -12 -15 -14 -15 -10 -2 3 9 -1 16 -8
16 -10 0 -11 -5 -4 -18 14 -26 11 -28 -15 -16 -17 8 -21 14 -13 20 7 5 3 7
-10 4 -13 -3 -26 0 -30 5 -3 7 -1 8 5 4 7 -4 12 -3 12 3 0 6 8 8 18 5 15 -5
15 -4 -1 6 -13 9 -22 9 -32 0 -7 -6 -16 -7 -18 -3 -3 5 -22 8 -41 8 -20 -1
-36 3 -36 9 0 6 -7 3 -15 -7 -10 -15 -21 -17 -44 -12 -17 4 -31 11 -31 17 0 6
-6 6 -15 -2 -20 -17 -19 -33 5 -48 25 -15 26 -34 3 -25 -23 8 -14 -1 16 -17
21 -11 23 -10 18 4 -4 9 -2 16 3 16 6 0 10 -8 11 -17 0 -10 3 -13 5 -6 3 7 0
22 -6 34 -10 17 -14 19 -21 8 -6 -11 -9 -10 -15 4 -10 26 1 30 35 13 21 -12
37 -13 54 -7 14 6 28 7 33 3 4 -4 4 -1 0 6 -4 7 -1 12 8 12 9 0 19 0 23 1 4 0
9 -5 12 -12 2 -8 -1 -9 -10 -3 -11 6 -10 3 1 -11 14 -17 13 -18 -10 -12 l-25
6 24 -18 c25 -19 22 -44 -4 -34 -11 4 -15 -2 -15 -23 0 -32 -5 -30 -14 8 -5
24 -4 26 21 23 25 -2 26 -2 8 11 -16 12 -21 12 -35 -1 -19 -17 -34 -20 -25 -5
3 6 0 10 -7 10 -9 0 -9 3 2 10 13 8 12 10 -4 10 -13 0 -17 -5 -14 -18 3 -12
-2 -24 -14 -31 -11 -7 -16 -17 -12 -24 4 -7 4 -9 -1 -5 -4 4 -13 3 -20 -2 -8
-7 -12 -5 -12 5 0 7 4 13 8 12 11 -3 12 17 0 21 -6 2 -16 -7 -21 -20 -10 -23
-11 -23 -6 0 3 14 -1 22 -10 22 -8 0 -13 -5 -12 -11 2 -6 -4 -14 -12 -16 -13
-4 -13 -3 0 6 12 8 10 12 -10 19 -14 5 -28 8 -31 6 -4 -2 -9 3 -12 11 -4 9 -1
12 7 9 8 -3 17 -1 21 5 4 7 -3 11 -17 11 -14 0 -33 6 -44 14 -15 12 -17 17 -6
27 6 7 12 17 12 23 0 5 -9 -1 -20 -14 -13 -15 -20 -18 -20 -9 0 9 -12 14 -35
15 -35 1 -47 -9 -21 -19 7 -3 20 0 27 6 8 8 8 5 -1 -7 -14 -18 -13 -19 3 -13
9 3 17 2 17 -3 0 -15 -20 -22 -34 -11 -7 6 -17 7 -21 3 -5 -4 -5 -1 -1 6 4 6
2 12 -3 12 -6 0 -11 -6 -11 -14 0 -20 50 -26 75 -10 19 13 24 12 40 -6 19 -21
19 -21 -8 -16 -19 3 -27 0 -27 -10 0 -8 -10 -19 -22 -24 -18 -7 -19 -9 -5 -9
9 -1 17 -5 17 -10 0 -5 -9 -7 -20 -4 -11 3 -20 11 -20 17 0 7 -15 12 -35 13
-19 1 -35 -3 -35 -7 0 -4 -8 -7 -17 -6 -10 0 -17 -5 -16 -11 2 -7 -2 -13 -7
-13 -6 0 -10 5 -10 10 0 7 -8 7 -22 -1 -13 -6 -20 -8 -16 -4 4 5 3 14 -3 22
-9 9 -8 13 0 13 6 0 11 -4 11 -10 0 -5 5 -10 10 -10 6 0 8 10 5 23 -5 18 0 24
24 34 18 6 33 7 37 2 3 -5 -4 -9 -15 -9 -14 0 -19 -5 -14 -15 7 -19 38 -16 38
3 0 7 7 17 15 22 12 8 10 10 -9 10 -19 0 -23 4 -19 23 3 17 0 23 -14 23 -11 0
-16 -6 -14 -13 3 -7 -1 -10 -10 -6 -8 3 -14 2 -13 -3 4 -16 -24 -64 -36 -64
-7 0 -15 -9 -18 -20 -3 -11 -11 -20 -19 -19 -10 0 -10 2 0 6 6 2 10 9 7 13 -3
5 -13 6 -22 3 -10 -4 -14 -2 -11 8 2 7 -6 23 -19 35 -25 24 -29 39 -11 50 8 5
9 2 5 -9 -3 -10 -2 -17 2 -17 11 0 19 21 14 36 -5 14 -43 6 -43 -8 0 -5 -10
-8 -22 -6 -14 2 -22 -2 -21 -9 2 -7 -3 -13 -10 -13 -9 0 -9 -2 0 -8 8 -5 8
-13 -2 -32 -8 -14 -14 -19 -15 -12 0 6 -5 12 -11 12 -5 0 -8 -3 -6 -7 3 -5
-10 -8 -28 -9 -20 0 -31 4 -28 9 4 6 1 7 -7 2 -9 -6 -11 -4 -5 4 4 7 18 11 30
9 18 -4 22 -1 17 10 -3 10 -1 13 6 8 8 -5 10 -1 5 11 -6 16 -5 17 12 3 10 -8
16 -10 12 -3 -4 6 -3 13 1 15 5 1 0 12 -10 23 -16 16 -18 17 -13 2 6 -13 2
-17 -16 -18 -13 0 -18 -3 -11 -6 6 -2 12 -8 12 -13 0 -9 -62 11 -82 27 -11 10
-14 8 -15 -8 -1 -14 5 -19 23 -19 15 0 24 -6 24 -16 0 -8 -4 -13 -8 -10 -4 2
-14 0 -22 -6 -12 -8 -12 -9 3 -4 23 7 22 -11 -3 -24 -12 -6 -17 -17 -14 -28 5
-16 5 -16 -6 0 -6 10 -10 24 -9 30 4 33 -2 68 -12 68 -5 0 -7 -6 -3 -12 4 -7
-1 -5 -11 4 -14 13 -16 20 -7 31 9 11 8 14 -3 14 -8 0 -12 -4 -9 -9 3 -4 -2
-8 -10 -8 -9 0 -15 5 -13 11 1 6 -4 13 -11 15 -7 1 -8 0 -2 -3 5 -2 7 -9 4
-14 -3 -6 -12 -5 -22 3 -13 11 -14 11 -7 -1 6 -11 4 -13 -7 -8 -11 4 -15 1
-13 -11 2 -9 4 -20 4 -24 1 -5 4 -7 9 -7 20 3 23 -2 11 -18 -13 -15 -12 -15 9
-4 l23 12 -21 19 -22 19 32 -1 c30 -1 57 -28 42 -42 -3 -4 1 -4 10 -1 22 9 31
-22 10 -35 -15 -8 -15 -11 -2 -20 9 -6 10 -10 3 -10 -19 0 -26 20 -13 35 10
12 9 15 -8 15 -16 0 -20 5 -15 18 4 11 0 10 -11 -5 -10 -13 -24 -23 -32 -23
-9 0 -13 -5 -9 -12 4 -7 -1 -4 -9 6 -9 11 -16 14 -16 8 0 -10 -3 -10 -14 0
-13 11 -13 14 0 24 14 11 19 34 8 34 -4 0 -17 -10 -29 -22 -22 -23 -53 -49
-70 -60 -6 -3 -10 5 -10 18 0 18 6 24 21 24 32 0 62 40 53 70 -5 17 -7 19 -8
7 -1 -10 -5 -16 -9 -13 -5 3 -9 -1 -9 -9 0 -8 4 -15 9 -15 5 0 3 -7 -6 -15
-17 -17 -30 -20 -21 -5 3 6 1 10 -6 10 -8 0 -7 5 2 18 13 15 12 16 -3 3 -10
-7 -15 -17 -12 -22 3 -5 -2 -6 -10 -3 -14 6 -21 -5 -17 -28 0 -5 -3 -8 -9 -8
-5 0 -7 -6 -4 -14 3 -8 0 -17 -7 -22 -9 -5 -10 -2 -6 10 6 14 3 17 -9 12 -14
-5 -15 -4 -5 8 10 11 4 12 -36 5 -26 -5 -54 -7 -61 -4 -7 3 -10 1 -7 -4 3 -5
0 -13 -6 -16 -7 -5 -9 0 -7 13 2 12 -1 20 -7 19 -14 -3 -16 -29 -2 -46 7 -8
-2 -5 -20 7 l-32 23 -18 -21 c-10 -11 -22 -20 -27 -20 -6 0 -5 5 2 12 19 19
14 30 -7 18 -17 -9 -19 -7 -15 12 3 13 6 29 6 35 1 8 10 10 27 6 35 -8 42 -13
36 -23 -3 -4 2 -11 11 -14 8 -3 13 -2 9 3 -3 5 0 15 7 23 17 18 21 38 7 38 -6
0 -9 7 -5 15 4 12 2 13 -13 6 -10 -6 -28 -8 -40 -6 -11 2 -21 -1 -21 -6 0 -5
6 -9 13 -8 36 4 57 -2 57 -18 0 -15 -2 -16 -10 -3 -7 11 -10 11 -10 2 0 -10
-5 -10 -22 -1 -13 7 -24 12 -25 11 -9 -6 -23 -1 -19 6 3 5 0 9 -7 10 -7 0 -28
4 -47 7 l-35 6 35 -18 c36 -18 48 -46 31 -72 -8 -13 -12 -13 -27 0 -11 9 -15
9 -10 2 4 -8 2 -13 -6 -13 -10 0 -10 -2 1 -9 8 -5 9 -11 3 -15 -6 -3 -17 13
-25 36 l-15 43 3 -40 c3 -34 0 -41 -15 -41 -10 0 -16 4 -14 8 3 4 0 8 -7 8 -8
0 -8 4 1 15 9 10 9 15 1 15 -6 0 -11 -5 -11 -11 0 -6 -7 -9 -15 -6 -8 4 -17 2
-20 -3 -4 -6 -2 -10 4 -10 5 0 22 -11 36 -24 16 -15 33 -22 42 -19 10 4 14 2
10 -4 -5 -7 313 -243 799 -595 443 -321 939 -680 1103 -798 163 -118 318 -232
344 -254 106 -87 202 -254 233 -406 19 -97 15 -238 -10 -332 -14 -51 -14 -64
-1 -114 43 -164 25 -327 -54 -489 -90 -184 -15 -126 -1554 -1200 -787 -550
-1411 -978 -1459 -1003 -120 -61 -189 -77 -333 -76 -108 0 -129 4 -215 33 -52
18 -116 45 -143 62 -26 16 -625 438 -1331 939 -1436 1018 -1378 972 -1465
1152 -27 57 -55 128 -62 158 -18 76 -16 250 4 331 14 60 15 71 1 115 -25 79
-29 236 -10 334 30 151 128 318 241 413 22 19 623 420 1335 892 712 472 1297
861 1300 865 3 4 14 11 24 17 17 10 17 11 -7 12 -50 3 -56 4 -61 17 -3 8 0 11
8 8 8 -3 17 -1 21 5 4 7 -3 11 -17 11 -14 0 -33 6 -44 14 -15 12 -17 17 -6 27
6 7 12 17 12 23 0 5 -9 -1 -20 -14 -13 -15 -20 -18 -20 -9 0 9 -12 14 -35 15
-35 1 -47 -9 -21 -19 7 -3 20 0 27 6 8 8 8 5 -1 -7 -14 -18 -13 -19 3 -13 9 3
17 2 17 -3 0 -15 -20 -22 -34 -11 -7 6 -17 7 -21 3 -5 -4 -5 -1 -1 6 4 6 2 12
-3 12 -6 0 -11 -6 -11 -14 0 -20 50 -26 75 -10 19 13 24 12 40 -6 19 -21 19
-21 -8 -16 -19 3 -27 0 -27 -10 0 -8 -10 -19 -22 -24 -18 -7 -19 -9 -5 -9 9
-1 17 -5 17 -10 0 -5 -9 -7 -20 -4 -11 3 -20 11 -20 17 0 7 -15 12 -35 13 -19
1 -35 -3 -35 -7 0 -4 -8 -7 -17 -6 -10 0 -17 -5 -16 -11 2 -7 -2 -13 -7 -13
-6 0 -10 5 -10 10 0 7 -8 7 -22 -1 -13 -6 -20 -8 -16 -4 4 5 3 14 -3 22 -9 9
-8 13 0 13 6 0 11 -4 11 -10 0 -5 5 -10 10 -10 6 0 8 10 5 23 -5 18 0 24 24
34 18 6 33 7 37 2 3 -5 -4 -9 -15 -9 -14 0 -19 -5 -14 -15 7 -19 38 -16 38 3
0 7 7 17 15 22 12 8 10 10 -9 10 -19 0 -23 4 -19 23 3 17 0 23 -14 23 -11 0
-16 -6 -14 -13 3 -7 -1 -10 -10 -6 -8 3 -14 2 -13 -3 4 -16 -24 -64 -36 -64
-7 0 -15 -9 -18 -20 -3 -11 -11 -20 -19 -19 -10 0 -10 2 0 6 6 2 10 9 7 13 -3
5 -13 6 -22 3 -10 -4 -14 -2 -11 8 2 7 -6 23 -19 35 -25 24 -29 39 -11 50 8 5
9 2 5 -9 -3 -10 -2 -17 2 -17 12 0 19 21 14 36 -5 14 -43 6 -43 -8 0 -5 -10
-8 -22 -6 -14 2 -22 -2 -21 -9 2 -7 -3 -13 -10 -13 -9 0 -9 -2 0 -8 8 -5 8
-13 -2 -32 -8 -14 -14 -19 -15 -12 0 6 -5 12 -11 12 -5 0 -8 -3 -6 -7 3 -5
-10 -8 -28 -9 -20 0 -31 4 -28 9 4 6 1 7 -7 2 -9 -6 -11 -4 -5 4 4 7 18 11 30
9 18 -4 22 -1 17 10 -3 10 -1 13 6 8 8 -5 10 -1 5 11 -6 16 -5 17 12 3 10 -8
16 -10 12 -3 -4 6 -3 13 1 15 5 1 0 12 -10 23 -16 16 -18 17 -13 2 6 -13 2
-17 -16 -18 -13 0 -18 -3 -11 -6 6 -2 12 -8 12 -13 0 -9 -62 11 -82 27 -11 10
-14 8 -15 -8 -1 -14 5 -19 23 -19 15 0 24 -6 24 -16 0 -8 -4 -13 -8 -10 -4 2
-14 0 -22 -6 -12 -8 -12 -9 3 -4 23 7 22 -11 -3 -24 -12 -6 -17 -17 -14 -28 5
-16 5 -16 -6 0 -6 10 -10 24 -9 30 4 33 -2 68 -12 68 -5 0 -7 -6 -3 -12 4 -7
-1 -5 -11 4 -14 13 -16 20 -7 31 9 11 8 14 -3 14 -8 0 -12 -4 -9 -9 3 -4 -2
-8 -10 -8 -9 0 -15 5 -13 11 1 6 -4 13 -11 15 -7 1 -8 0 -2 -3 5 -2 7 -9 4
-14 -3 -6 -12 -5 -22 3 -13 11 -14 11 -7 -1 6 -11 4 -13 -7 -8 -11 4 -15 1
-13 -11 2 -9 4 -20 4 -24 1 -5 4 -7 9 -7 20 3 23 -2 11 -18 -13 -15 -12 -15 9
-4 l23 12 -21 19 -22 19 32 -1 c30 -1 57 -28 42 -42 -3 -4 1 -4 10 -1 22 9 31
-22 10 -35 -15 -8 -15 -11 -2 -20 9 -6 10 -10 3 -10 -19 0 -26 20 -13 35 10
12 9 15 -8 15 -16 0 -20 5 -15 18 4 11 0 10 -11 -5 -10 -13 -24 -23 -32 -23
-9 0 -13 -5 -9 -12 4 -7 -1 -4 -9 6 -9 11 -16 14 -16 8 0 -10 -3 -10 -14 0
-13 11 -13 14 0 24 14 11 19 34 8 34 -4 0 -17 -10 -29 -22 -22 -23 -53 -49
-70 -60 -6 -3 -10 5 -10 18 0 18 6 24 21 24 32 0 62 40 53 70 -5 17 -7 19 -8
7 -1 -10 -5 -16 -9 -13 -5 3 -9 -1 -9 -9 0 -8 4 -15 9 -15 5 0 3 -7 -6 -15
-17 -17 -30 -20 -21 -5 3 6 1 10 -6 10 -8 0 -7 5 2 18 13 15 12 16 -3 3 -10
-7 -15 -17 -12 -22 3 -5 -2 -6 -10 -3 -14 6 -21 -5 -17 -28 0 -5 -3 -8 -9 -8
-5 0 -7 -6 -4 -14 3 -8 0 -17 -7 -22 -9 -5 -10 -2 -6 10 6 14 3 17 -9 12 -14
-5 -15 -4 -5 8 10 11 4 12 -36 5 -26 -5 -54 -7 -61 -4 -7 3 -10 1 -7 -4 3 -5
0 -13 -6 -16 -7 -5 -9 0 -7 12 2 11 -1 19 -7 19 -14 -1 -16 -28 -2 -45 7 -8
-2 -5 -20 7 l-32 23 -18 -21 c-10 -11 -22 -20 -27 -20 -6 0 -5 5 2 12 19 19
14 30 -7 18 -17 -9 -19 -7 -15 12 3 13 6 29 6 35 1 8 10 10 27 6 35 -8 42 -13
36 -23 -3 -4 2 -11 11 -14 8 -3 13 -2 9 3 -3 5 0 15 7 23 17 18 21 38 7 38 -6
0 -9 7 -5 15 4 12 2 13 -13 6 -10 -6 -28 -8 -40 -6 -11 2 -21 -1 -21 -6 0 -5
6 -9 13 -8 36 4 57 -2 57 -18 0 -15 -2 -16 -10 -3 -7 11 -10 11 -10 2 0 -9 -5
-10 -17 -3 -18 9 -25 11 -44 11 -5 0 -8 4 -5 8 3 5 0 9 -7 10 -7 0 -28 4 -47
7 l-35 6 35 -18 c36 -18 48 -46 31 -72 -8 -13 -12 -13 -27 0 -11 9 -15 9 -10
2 4 -8 2 -13 -6 -13 -10 0 -10 -2 1 -9 8 -5 9 -11 3 -15 -6 -3 -17 13 -25 36
l-15 43 3 -40 c3 -34 0 -41 -15 -41 -10 0 -16 4 -14 8 3 4 0 8 -7 8 -8 0 -8 4
1 15 9 10 9 15 1 15 -6 0 -11 -4 -11 -9 0 -6 -18 -9 -40 -8 -22 2 -40 2 -40 0
0 -1 7 -9 16 -17 8 -9 11 -16 5 -16 -5 0 -13 5 -16 10 -4 6 -11 8 -16 5 -5 -4
-9 -1 -9 6 0 7 -6 5 -13 -6 -11 -14 -16 -15 -22 -5 -5 9 -4 11 3 6 7 -4 12 -3
12 2 0 11 -30 26 -44 23 -18 -4 -56 9 -56 20 0 6 7 9 15 5 9 -3 15 0 15 9 0
26 -4 30 -27 27 -13 -1 -23 2 -23 8 0 6 -4 9 -9 6 -5 -4 -7 2 -4 12 3 12 -1
19 -10 19 -9 0 -13 -6 -10 -14 4 -9 -4 -13 -27 -13 -17 0 -29 -4 -25 -10 3 -5
13 -6 22 -3 11 4 14 3 9 -5 -4 -7 -2 -12 3 -12 6 0 10 -5 9 -11 -2 -6 8 -18
22 -27 24 -16 25 -16 10 3 -9 11 -10 16 -2 11 7 -4 15 -1 18 8 3 9 13 16 22
16 13 0 13 -2 -3 -14 -11 -8 -16 -19 -12 -30 6 -14 2 -18 -20 -15 -4 0 -10 -8
-14 -18 -5 -14 -8 -11 -14 15 -4 18 -13 36 -21 39 -8 3 -11 9 -8 14 3 5 0 9
-6 9 -7 0 -9 -8 -5 -20 4 -11 3 -20 -2 -19 -30 5 -44 -2 -38 -21 11 -36 -11
-21 -25 18 -22 54 -23 59 -11 42 8 -12 11 -12 11 -1 0 11 3 11 15 1 8 -7 15
-11 16 -9 6 31 6 40 -1 44 -4 3 -13 -2 -20 -10 -6 -7 -18 -11 -25 -9 -19 8
-57 -15 -49 -28 4 -6 3 -8 -4 -5 -14 10 -43 -3 -36 -15 4 -6 10 -5 15 3 7 11
9 11 9 1 0 -10 5 -10 20 -2 11 6 18 15 15 20 -3 5 -1 11 4 15 6 3 8 -6 5 -22
-3 -19 -1 -24 5 -14 5 8 11 9 15 3 3 -6 -6 -23 -20 -39 -25 -25 -27 -26 -22
-6 8 30 -19 35 -55 10 -15 -10 -26 -15 -25 -10 2 4 -1 8 -7 8 -5 0 -9 -5 -7
-12 2 -7 -2 -13 -8 -13 -6 0 -9 4 -5 9 3 5 -4 16 -16 24 -11 9 -16 18 -10 21
5 4 12 2 16 -4 8 -13 25 -3 25 13 0 8 -3 7 -9 -2 -7 -11 -11 -10 -20 6 -5 11
-9 22 -7 24 2 2 -2 9 -9 16 -11 10 -13 6 -11 -20 3 -48 -8 -64 -45 -63 -22 1
-33 6 -35 19 -3 19 4 21 26 8 8 -6 18 -7 23 -4 5 3 4 9 -3 13 -7 4 -9 13 -5
20 6 9 9 9 16 -1 6 -10 8 -7 6 8 -1 21 -1 21 -25 2 -25 -19 -47 -26 -38 -11 2
4 -5 9 -16 9 -11 1 -29 11 -40 22 -22 25 -30 27 -22 6 4 -8 1 -15 -5 -15 -6 0
-11 5 -11 10 0 17 -25 11 -37 -10 -11 -16 -10 -18 4 -13 10 4 14 2 10 -4 -3
-5 0 -10 8 -10 8 0 15 5 15 10 0 5 8 6 18 2 9 -4 27 -8 39 -9 12 -1 25 -5 29
-9 4 -3 -3 -5 -15 -2 -13 2 -21 -1 -21 -11 0 -8 -7 -14 -15 -14 -8 0 -15 -4
-15 -10 0 -5 -5 -10 -11 -10 -6 0 -8 9 -4 20 5 17 2 20 -21 20 -22 0 -25 -3
-16 -12 14 -14 16 -58 3 -58 -15 0 -23 18 -11 25 5 3 10 12 10 18 0 7 -4 6
-11 -3 -9 -13 -10 -12 -5 3 3 9 1 17 -3 17 -9 0 -8 41 1 70 3 8 3 12 1 7 -3
-4 -10 -4 -16 0 -21 13 -36 11 -30 -3 3 -8 0 -14 -7 -14 -7 0 -19 -8 -27 -17
-12 -15 -14 -15 -10 -2 3 9 -1 16 -8 16 -10 0 -11 -5 -4 -18 14 -26 11 -28
-15 -16 -17 8 -21 14 -13 20 7 5 3 7 -10 4 -13 -3 -26 0 -30 5 -3 7 -1 8 5 4
7 -4 12 -3 12 3 0 6 8 8 18 5 15 -5 15 -4 -1 6 -13 9 -22 9 -32 0 -7 -6 -16
-7 -18 -3 -3 5 -22 8 -41 8 -20 -1 -36 3 -36 9 0 6 -7 3 -15 -7 -10 -15 -21
-17 -44 -12 -17 4 -31 11 -31 17 0 6 -6 6 -15 -2 -20 -17 -19 -33 5 -48 25
-15 26 -34 3 -25 -23 8 -14 -1 16 -17 21 -11 23 -10 18 4 -4 9 -2 16 3 16 6 0
10 -8 11 -17 0 -10 3 -13 5 -6 3 7 0 22 -6 34 -10 17 -14 19 -21 8 -6 -11 -9
-10 -15 4 -10 26 1 30 35 13 21 -12 37 -13 54 -7 14 6 28 7 33 3 4 -4 4 -1 0
6 -4 7 -1 12 8 12 9 0 19 0 23 1 4 0 9 -5 12 -12 2 -8 -1 -9 -10 -3 -11 6 -10
3 1 -11 14 -17 13 -18 -10 -12 l-25 6 24 -18 c25 -19 22 -44 -4 -34 -11 4 -15
-2 -15 -23 0 -32 -5 -30 -14 8 -5 24 -4 26 21 23 25 -2 26 -2 8 11 -16 12 -21
12 -35 -1 -19 -17 -34 -20 -25 -5 3 6 0 10 -7 10 -9 0 -9 3 2 10 13 8 12 10
-4 10 -13 0 -17 -5 -14 -18 3 -12 -2 -24 -14 -31 -11 -7 -16 -17 -12 -24 4 -7
4 -9 -1 -5 -4 4 -13 3 -20 -2 -8 -7 -12 -5 -12 5 0 7 4 13 8 12 11 -3 12 17 0
21 -6 2 -16 -7 -21 -20 -10 -23 -11 -23 -6 0 3 14 -1 22 -10 22 -8 0 -13 -5
-12 -11 2 -6 -4 -14 -12 -16 -13 -4 -13 -3 0 6 12 8 10 12 -10 19 -14 5 -28 8
-31 6 -4 -2 -9 3 -12 11 -4 9 -1 12 7 9 8 -3 17 -1 21 5 4 7 -3 11 -17 11 -14
0 -33 6 -44 14 -15 12 -17 17 -6 27 6 7 12 17 12 23 0 5 -9 -1 -20 -14 -13
-15 -20 -18 -20 -9 0 9 -12 14 -35 15 -35 1 -47 -9 -21 -19 7 -3 20 0 27 6 8
8 8 5 -1 -7 -14 -18 -13 -19 3 -13 9 3 17 2 17 -3 0 -15 -20 -22 -34 -11 -7 6
-17 7 -21 3 -5 -4 -5 -1 -1 6 4 6 2 12 -3 12 -6 0 -11 -6 -11 -14 0 -20 50
-26 75 -10 19 13 24 12 40 -6 19 -21 19 -21 -8 -16 -19 3 -27 0 -27 -10 0 -8
-10 -19 -22 -24 -18 -7 -19 -9 -5 -9 9 -1 17 -5 17 -10 0 -5 -9 -7 -20 -4 -11
3 -20 11 -20 17 0 7 -15 12 -35 13 -19 1 -35 -3 -35 -7 0 -4 -8 -7 -17 -6 -10
0 -17 -5 -16 -11 2 -7 -2 -13 -7 -13 -6 0 -10 5 -10 10 0 7 -8 7 -22 -1 -13
-6 -20 -8 -16 -4 4 5 3 14 -3 22 -9 9 -8 13 0 13 6 0 11 -4 11 -10 0 -5 5 -10
10 -10 6 0 8 10 5 23 -5 18 0 24 24 34 18 6 33 7 37 2 3 -5 -4 -9 -15 -9 -14
0 -19 -5 -14 -15 7 -19 38 -16 38 3 0 7 7 17 15 22 12 8 10 10 -9 10 -19 0
-23 4 -19 23 3 17 0 23 -14 23 -11 0 -16 -6 -14 -13 3 -7 -1 -10 -10 -6 -8 3
-14 2 -13 -3 4 -16 -24 -64 -36 -64 -7 0 -15 -9 -18 -20 -3 -11 -11 -20 -19
-19 -10 0 -10 2 0 6 6 2 10 9 7 13 -3 5 -13 6 -22 3 -10 -4 -14 -2 -11 8 2 7
-6 23 -19 35 -25 24 -29 39 -11 50 8 5 9 2 5 -9 -3 -10 -2 -17 2 -17 11 0 19
21 14 36 -5 14 -43 6 -43 -8 0 -5 -10 -8 -22 -6 -14 2 -22 -2 -21 -9 2 -7 -3
-13 -10 -13 -9 0 -9 -2 0 -8 8 -5 8 -13 -2 -32 -8 -14 -14 -19 -15 -12 0 6 -5
12 -11 12 -5 0 -8 -3 -6 -7 3 -5 -10 -8 -28 -9 -20 0 -31 4 -28 9 4 6 1 7 -7
2 -9 -6 -11 -4 -5 4 4 7 18 11 30 9 18 -4 22 -1 17 10 -3 10 -1 13 6 8 8 -5
10 -1 5 11 -6 16 -5 17 12 3 10 -8 16 -10 12 -3 -4 6 -3 13 1 15 5 1 0 12 -10
23 -16 16 -18 17 -13 2 6 -13 2 -17 -16 -18 -13 0 -18 -3 -11 -6 6 -2 12 -8
12 -13 0 -9 -62 11 -82 27 -11 10 -14 8 -15 -8 -1 -14 5 -19 23 -19 15 0 24
-6 24 -16 0 -8 -4 -13 -8 -10 -4 2 -14 0 -22 -6 -12 -8 -12 -9 3 -4 23 7 22
-11 -3 -24 -12 -6 -17 -17 -14 -28 5 -16 5 -16 -6 0 -6 10 -10 24 -9 30 4 33
-2 68 -12 68 -5 0 -7 -6 -3 -12 4 -7 -1 -5 -11 4 -14 13 -16 20 -7 31 9 11 8
14 -3 14 -8 0 -12 -4 -9 -9 3 -4 -2 -8 -10 -8 -9 0 -15 5 -13 11 1 6 -4 13
-11 15 -7 1 -8 0 -2 -3 5 -2 7 -9 4 -14 -3 -6 -12 -5 -22 3 -13 11 -14 11 -7
-1 6 -11 4 -13 -7 -8 -11 4 -15 1 -13 -11 2 -9 4 -20 4 -24 1 -5 4 -7 9 -7 20
3 23 -2 11 -18 -13 -15 -12 -15 9 -4 l23 12 -21 19 -22 19 32 -1 c30 -1 57
-28 42 -42 -3 -4 1 -4 10 -1 22 9 31 -22 10 -35 -15 -8 -15 -11 -2 -20 9 -6
10 -10 3 -10 -19 0 -26 20 -13 35 10 12 9 15 -8 15 -16 0 -20 5 -15 18 4 11 0
10 -11 -5 -10 -13 -24 -23 -32 -23 -9 0 -13 -5 -9 -12 4 -7 -1 -4 -9 6 -9 11
-16 14 -16 8 0 -10 -3 -10 -14 0 -13 11 -13 14 0 24 14 11 19 34 8 34 -4 0
-17 -10 -29 -22 -22 -23 -53 -49 -70 -60 -6 -3 -10 5 -10 18 0 18 6 24 21 24
32 0 62 40 53 70 -5 17 -7 19 -8 7 -1 -10 -5 -16 -9 -13 -5 3 -9 -1 -9 -9 0
-8 4 -15 9 -15 5 0 3 -7 -6 -15 -17 -17 -30 -20 -21 -5 3 6 1 10 -6 10 -8 0
-7 5 2 18 13 15 12 16 -3 3 -10 -7 -15 -17 -12 -22 3 -5 -2 -6 -10 -3 -14 6
-21 -5 -17 -28 0 -5 -3 -8 -9 -8 -5 0 -7 -6 -4 -14 3 -8 0 -17 -7 -22 -9 -5
-10 -2 -6 10 6 14 3 17 -9 12 -14 -5 -15 -4 -5 8 10 11 4 12 -36 5 -26 -5 -54
-7 -61 -4 -7 3 -10 1 -7 -4 3 -5 0 -13 -6 -16 -6 -5 -9 0 -7 11 1 11 -1 20 -7
22 -14 4 -15 -30 -2 -47 7 -8 -2 -5 -20 7 l-32 23 -18 -21 c-10 -11 -22 -20
-27 -20 -6 0 -5 5 2 12 19 19 14 30 -7 18 -17 -9 -19 -7 -15 12 3 13 6 29 6
35 1 8 10 10 27 6 35 -8 42 -13 36 -23 -3 -4 2 -11 11 -14 8 -3 13 -2 9 3 -3
5 0 15 7 23 17 18 21 38 7 38 -6 0 -9 7 -5 15 4 12 2 13 -13 6 -10 -6 -28 -8
-40 -6 -11 2 -21 -1 -21 -6 0 -5 6 -9 13 -8 36 4 57 -2 57 -18 0 -15 -2 -16
-10 -3 -7 11 -10 11 -10 2 0 -10 -5 -10 -22 -1 -13 7 -24 12 -25 11 -9 -6 -23
-1 -19 6 3 5 0 9 -7 10 -7 0 -28 4 -47 7 l-35 6 35 -18 c36 -18 48 -46 31 -72
-8 -13 -12 -13 -27 0 -11 9 -15 9 -10 2 4 -8 2 -13 -6 -13 -10 0 -10 -2 1 -9
8 -5 9 -11 3 -15 -6 -3 -17 13 -25 36 l-15 43 3 -40 c3 -34 0 -41 -15 -41 -10
0 -16 4 -14 8 3 4 0 8 -7 8 -8 0 -8 4 1 15 9 10 9 15 1 15 -6 0 -11 -4 -11 -9
0 -6 -18 -9 -40 -8 -22 2 -40 2 -40 0 0 -1 7 -9 16 -17 8 -9 11 -16 5 -16 -5
0 -13 5 -16 10 -4 6 -11 8 -16 5 -5 -4 -9 -1 -9 6 0 7 -6 5 -13 -6 -11 -14
-16 -15 -22 -5 -5 9 -4 11 3 6 7 -4 12 -3 12 2 0 11 -30 26 -44 23 -18 -4 -56
9 -56 20 0 6 7 9 15 5 9 -3 15 0 15 9 0 26 -4 30 -27 27 -13 -1 -23 2 -23 8 0
6 -4 9 -9 6 -5 -4 -7 2 -4 12 3 12 -1 19 -10 19 -9 0 -13 -6 -10 -14z m2013
-24 c0 -5 -4 -9 -10 -9 -5 0 -10 7 -10 16 0 8 5 12 10 9 6 -3 10 -10 10 -16z
m5120 0 c0 -5 -4 -9 -10 -9 -5 0 -10 7 -10 16 0 8 5 12 10 9 6 -3 10 -10 10
-16z m2560 0 c0 -5 -4 -9 -10 -9 -5 0 -10 7 -10 16 0 8 5 12 10 9 6 -3 10 -10
10 -16z m-7910 -1 c0 -4 -7 -8 -15 -8 -8 0 -15 4 -15 8 0 5 7 9 15 9 8 0 15
-4 15 -9z m5120 0 c0 -4 -7 -8 -15 -8 -8 0 -15 4 -15 8 0 5 7 9 15 9 8 0 15
-4 15 -9z m2560 0 c0 -4 -7 -8 -15 -8 -8 0 -15 4 -15 8 0 5 7 9 15 9 8 0 15
-4 15 -9z m-8259 -102 c-9 -15 -10 -16 -6 -2 4 14 1 17 -14 13 -14 -3 -18 -1
-14 9 3 8 9 11 14 8 5 -3 9 0 9 5 0 6 -10 9 -22 7 -13 -2 -22 -9 -20 -15 1 -6
-5 -14 -13 -17 -8 -3 -12 -10 -9 -15 7 -12 -7 -11 -26 1 -13 8 -13 10 1 10 10
0 20 12 24 27 3 15 12 31 18 35 8 5 7 8 -3 9 -10 0 -8 3 5 8 16 7 25 1 44 -26
19 -29 21 -39 12 -57z m765 78 c-3 -8 -2 -13 3 -9 5 3 16 3 23 0 13 -5 15 -34
9 -89 -2 -15 -15 3 -18 25 -2 14 1 18 9 13 7 -4 4 2 -6 15 -11 12 -26 19 -33
17 -16 -7 -17 16 -1 32 16 16 21 15 14 -4z m1795 -78 c-9 -15 -10 -16 -6 -2 4
14 1 17 -14 13 -14 -3 -18 -1 -14 9 3 8 9 11 14 8 5 -3 9 0 9 5 0 6 -10 9 -22
7 -13 -2 -22 -9 -20 -15 1 -6 -5 -14 -13 -17 -8 -3 -12 -10 -9 -15 7 -12 -7
-11 -26 1 -13 8 -13 10 1 10 10 0 20 12 24 27 3 15 12 31 18 35 8 5 7 8 -3 9
-10 0 -8 3 5 8 16 7 25 1 44 -26 19 -29 21 -39 12 -57z m2560 0 c-9 -15 -10
-16 -6 -2 4 14 1 17 -14 13 -14 -3 -18 -1 -14 9 3 8 9 11 14 8 5 -3 9 0 9 5 0
6 -10 9 -22 7 -13 -2 -22 -9 -20 -15 1 -6 -5 -14 -13 -17 -8 -3 -12 -10 -9
-15 7 -12 -7 -11 -26 1 -13 8 -13 10 1 10 10 0 20 12 24 27 3 15 12 31 18 35
8 5 7 8 -3 9 -10 0 -8 3 5 8 16 7 25 1 44 -26 19 -29 21 -39 12 -57z m765 78
c-3 -8 -2 -13 3 -9 5 3 16 3 23 0 13 -5 15 -34 9 -89 -2 -15 -15 3 -18 25 -2
14 1 18 9 13 7 -4 4 2 -6 15 -11 12 -26 19 -33 17 -16 -7 -17 16 -1 32 16 16
21 15 14 -4z m1795 -78 c-9 -15 -10 -16 -6 -2 4 14 1 17 -14 13 -14 -3 -18 -1
-14 9 3 8 9 11 14 8 5 -3 9 0 9 5 0 6 -10 9 -22 7 -13 -2 -22 -9 -20 -15 1 -6
-5 -14 -13 -17 -8 -3 -12 -10 -9 -15 7 -12 -7 -11 -26 1 -13 8 -13 10 1 10 10
0 20 12 24 27 3 15 12 31 18 35 8 5 7 8 -3 9 -10 0 -8 3 5 8 16 7 25 1 44 -26
19 -29 21 -39 12 -57z m765 78 c-3 -8 -2 -13 3 -9 5 3 16 3 23 0 13 -5 15 -34
9 -89 -2 -15 -15 3 -18 25 -2 14 1 18 9 13 7 -4 4 2 -6 15 -11 12 -26 19 -33
17 -16 -7 -17 16 -1 32 16 16 21 15 14 -4z m-8296 -4 c-20 -13 -33 -13 -25 0
3 6 14 10 23 10 15 0 15 -2 2 -10z m520 -1 c11 -8 12 -12 3 -16 -23 -9 -26 -8
-29 10 -3 19 4 21 26 6z m2040 1 c-20 -13 -33 -13 -25 0 3 6 14 10 23 10 15 0
15 -2 2 -10z m2560 0 c-20 -13 -33 -13 -25 0 3 6 14 10 23 10 15 0 15 -2 2
-10z m520 -1 c11 -8 12 -12 3 -16 -23 -9 -26 -8 -29 10 -3 19 4 21 26 6z
m2040 1 c-20 -13 -33 -13 -25 0 3 6 14 10 23 10 15 0 15 -2 2 -10z m520 -1
c11 -8 12 -12 3 -16 -23 -9 -26 -8 -29 10 -3 19 4 21 26 6z m-7597 -34 c8 4
18 1 23 -6 5 -9 2 -10 -9 -6 -10 3 -17 2 -17 -3 0 -6 -3 -9 -7 -9 -21 3 -33
-2 -27 -13 4 -6 3 -8 -4 -5 -5 4 -9 15 -7 25 1 9 -3 23 -9 31 -7 10 -3 9 15
-2 14 -10 33 -15 42 -12z m5120 0 c8 4 18 1 23 -6 5 -9 2 -10 -9 -6 -10 3 -17
2 -17 -3 0 -6 -3 -9 -7 -9 -21 3 -33 -2 -27 -13 4 -6 3 -8 -4 -5 -5 4 -9 15
-7 25 1 9 -3 23 -9 31 -7 10 -3 9 15 -2 14 -10 33 -15 42 -12z m2560 0 c8 4
18 1 23 -6 5 -9 2 -10 -9 -6 -10 3 -17 2 -17 -3 0 -6 -3 -9 -7 -9 -21 3 -33
-2 -27 -13 4 -6 3 -8 -4 -5 -5 4 -9 15 -7 25 1 9 -3 23 -9 31 -7 10 -3 9 15
-2 14 -10 33 -15 42 -12z m-10039 -17 c-1 -13 -3 -26 -3 -29 -1 -3 -8 -6 -17
-6 -14 0 -14 2 2 15 18 14 18 14 1 8 -10 -3 -23 -6 -28 -6 -5 0 -9 -7 -9 -17
0 -9 -3 -14 -6 -10 -11 11 6 42 28 53 33 17 35 16 32 -8z m391 -13 c2 -14 -1
-28 -6 -31 -5 -3 -9 -2 -8 3 3 19 -2 22 -26 13 -32 -12 -32 -7 2 24 30 28 34
27 38 -9z m806 17 c-11 -4 -11 -6 0 -14 10 -6 7 -8 -11 -6 -14 1 -31 -2 -39
-6 -10 -7 -12 -5 -6 5 18 31 27 37 48 31 13 -3 16 -7 8 -10z m109 -6 c0 -7 -7
-13 -15 -13 -15 0 -20 18 -9 30 9 9 24 -2 24 -17z m1254 2 c-1 -13 -3 -26 -3
-29 -1 -3 -8 -6 -17 -6 -14 0 -14 2 2 15 18 14 18 14 1 8 -10 -3 -23 -6 -28
-6 -5 0 -9 -7 -9 -17 0 -9 -3 -14 -6 -10 -11 11 6 42 28 53 33 17 35 16 32 -8z
m391 -13 c2 -14 -1 -28 -6 -31 -5 -3 -9 -2 -8 3 3 19 -2 22 -26 13 -32 -12
-32 -7 2 24 30 28 34 27 38 -9z m806 17 c-11 -4 -11 -6 0 -14 10 -6 7 -8 -11
-6 -14 1 -31 -2 -39 -6 -10 -7 -12 -5 -6 5 18 31 27 37 48 31 13 -3 16 -7 8
-10z m109 -6 c0 -7 -7 -13 -15 -13 -15 0 -20 18 -9 30 9 9 24 -2 24 -17z
m2451 6 c-11 -4 -11 -6 0 -14 10 -6 7 -8 -11 -6 -14 1 -31 -2 -39 -6 -10 -7
-12 -5 -6 5 18 31 27 37 48 31 13 -3 16 -7 8 -10z m109 -6 c0 -7 -7 -13 -15
-13 -15 0 -20 18 -9 30 9 9 24 -2 24 -17z m1254 2 c-1 -13 -3 -26 -3 -29 -1
-3 -8 -6 -17 -6 -14 0 -14 2 2 15 18 14 18 14 1 8 -10 -3 -23 -6 -28 -6 -5 0
-9 -7 -9 -17 0 -9 -3 -14 -6 -10 -11 11 6 42 28 53 33 17 35 16 32 -8z m391
-13 c2 -14 -1 -28 -6 -31 -5 -3 -9 -2 -8 3 3 19 -2 22 -26 13 -32 -12 -32 -7
2 24 30 28 34 27 38 -9z m806 17 c-11 -4 -11 -6 0 -14 10 -6 7 -8 -11 -6 -14
1 -31 -2 -39 -6 -10 -7 -12 -5 -6 5 18 31 27 37 48 31 13 -3 16 -7 8 -10z
m109 -6 c0 -7 -7 -13 -15 -13 -15 0 -20 18 -9 30 9 9 24 -2 24 -17z m-8633 8
c-3 -3 -12 -4 -19 -1 -8 3 -5 6 6 6 11 1 17 -2 13 -5z m649 -13 c0 -16 -4 -17
-18 -10 -10 5 -18 12 -18 15 0 3 4 3 9 -1 5 -3 12 -1 16 5 9 14 11 13 11 -9z
m956 -13 c-15 -15 -24 -6 -16 16 5 12 10 14 17 7 8 -8 8 -14 -1 -23z m335 16
c-2 -3 -15 -7 -28 -9 -23 -4 -23 -4 -5 10 16 12 45 11 33 -1z m620 10 c-3 -3
-12 -4 -19 -1 -8 3 -5 6 6 6 11 1 17 -2 13 -5z m649 -13 c0 -16 -4 -17 -18
-10 -10 5 -18 12 -18 15 0 3 4 3 9 -1 5 -3 12 -1 16 5 9 14 11 13 11 -9z m956
-13 c-6 -6 -14 -9 -17 -6 -3 3 -3 13 1 22 5 12 10 14 17 7 8 -8 8 -14 -1 -23z
m1604 13 c0 -16 -4 -17 -18 -10 -10 5 -18 12 -18 15 0 3 4 3 9 -1 5 -3 12 -1
16 5 9 14 11 13 11 -9z m956 -13 c-6 -6 -14 -9 -17 -6 -3 3 -3 13 1 22 5 12
10 14 17 7 8 -8 8 -14 -1 -23z m335 16 c-2 -3 -15 -7 -28 -9 -23 -4 -23 -4 -5
10 16 12 45 11 33 -1z m620 10 c-3 -3 -12 -4 -19 -1 -8 3 -5 6 6 6 11 1 17 -2
13 -5z m649 -13 c0 -16 -4 -17 -18 -10 -10 5 -18 12 -18 15 0 3 4 3 9 -1 5 -3
12 -1 16 5 9 14 11 13 11 -9z m956 -13 c-6 -6 -14 -9 -17 -6 -3 3 -3 13 1 22
5 12 10 14 17 7 8 -8 8 -14 -1 -23z m335 16 c-2 -3 -15 -7 -28 -9 -23 -4 -23
-4 -5 10 16 12 45 11 33 -1z m-9866 -22 c-6 -2 -8 -9 -4 -15 3 -7 2 -9 -2 -4
-5 4 -10 17 -12 29 -3 18 -1 19 13 7 10 -8 12 -15 5 -17z m384 14 c7 3 16 1
19 -4 3 -5 -6 -9 -19 -9 -17 0 -25 5 -24 16 0 9 3 11 5 4 3 -7 11 -10 19 -7z
m935 3 c0 -8 5 -8 15 1 8 7 15 8 15 3 0 -5 -12 -15 -26 -21 -19 -9 -24 -9 -18
0 5 8 2 9 -9 5 -17 -6 -23 4 -10 16 10 11 33 8 33 -4z m1241 -17 c-6 -2 -8 -9
-4 -15 3 -7 2 -9 -2 -4 -5 4 -10 17 -12 29 -3 18 -1 19 13 7 10 -8 12 -15 5
-17z m384 14 c7 3 16 1 19 -4 3 -5 -6 -9 -19 -9 -17 0 -25 5 -24 16 0 9 3 11
5 4 3 -7 11 -10 19 -7z m935 3 c0 -8 5 -8 15 1 8 7 15 8 15 3 0 -5 -12 -15
-26 -21 -19 -9 -24 -9 -18 0 5 8 2 9 -9 5 -17 -6 -23 4 -10 16 10 11 33 8 33
-4z m2560 0 c0 -8 5 -8 15 1 8 7 15 8 15 3 0 -5 -12 -15 -26 -21 -19 -9 -24
-9 -18 0 5 8 2 9 -9 5 -17 -6 -23 4 -10 16 10 11 33 8 33 -4z m1241 -17 c-6
-2 -8 -9 -4 -15 3 -7 2 -9 -2 -4 -5 4 -10 17 -12 29 -3 18 -1 19 13 7 10 -8
12 -15 5 -17z m384 14 c7 3 16 1 19 -4 3 -5 -6 -9 -19 -9 -17 0 -25 5 -24 16
0 9 3 11 5 4 3 -7 11 -10 19 -7z m935 3 c0 -8 5 -8 15 1 8 7 15 8 15 3 0 -5
-12 -15 -26 -21 -19 -9 -24 -9 -18 0 5 8 2 9 -9 5 -17 -6 -23 4 -10 16 10 11
33 8 33 -4z m-8885 -9 c3 -5 1 -10 -4 -10 -6 0 -11 5 -11 10 0 6 2 10 4 10 3
0 8 -4 11 -10z m75 6 c0 -2 -8 -10 -17 -17 -16 -13 -17 -12 -4 4 13 16 21 21
21 13z m374 -11 c3 -9 0 -15 -8 -15 -8 0 -16 7 -20 15 -3 9 0 15 8 15 8 0 16
-7 20 -15z m384 3 c-5 -15 -35 -19 -35 -4 0 7 9 13 19 13 11 1 18 -3 16 -9z
m762 2 c0 -5 -2 -10 -4 -10 -3 0 -8 5 -11 10 -3 6 -1 10 4 10 6 0 11 -4 11
-10z m190 0 c0 -5 -4 -10 -9 -10 -6 0 -13 5 -16 10 -3 6 1 10 9 10 9 0 16 -4
16 -10z m180 -5 c0 -8 -2 -15 -4 -15 -2 0 -6 7 -10 15 -3 8 -1 15 4 15 6 0 10
-7 10 -15z m595 5 c3 -5 1 -10 -4 -10 -6 0 -11 5 -11 10 0 6 2 10 4 10 3 0 8
-4 11 -10z m75 6 c0 -2 -8 -10 -17 -17 -16 -13 -17 -12 -4 4 13 16 21 21 21
13z m374 -11 c3 -9 0 -15 -8 -15 -8 0 -16 7 -20 15 -3 9 0 15 8 15 8 0 16 -7
20 -15z m384 3 c-5 -15 -35 -19 -35 -4 0 7 9 13 19 13 11 1 18 -3 16 -9z m762
2 c0 -5 -2 -10 -4 -10 -3 0 -8 5 -11 10 -3 6 -1 10 4 10 6 0 11 -4 11 -10z
m190 0 c0 -5 -4 -10 -9 -10 -6 0 -13 5 -16 10 -3 6 1 10 9 10 9 0 16 -4 16
-10z m1608 -2 c-5 -15 -35 -19 -35 -4 0 7 9 13 19 13 11 1 18 -3 16 -9z m762
2 c0 -5 -2 -10 -4 -10 -3 0 -8 5 -11 10 -3 6 -1 10 4 10 6 0 11 -4 11 -10z
m190 0 c0 -5 -4 -10 -9 -10 -6 0 -13 5 -16 10 -3 6 1 10 9 10 9 0 16 -4 16
-10z m180 -5 c0 -8 -2 -15 -4 -15 -2 0 -6 7 -10 15 -3 8 -1 15 4 15 6 0 10 -7
10 -15z m595 5 c3 -5 1 -10 -4 -10 -6 0 -11 5 -11 10 0 6 2 10 4 10 3 0 8 -4
11 -10z m75 6 c0 -2 -8 -10 -17 -17 -16 -13 -17 -12 -4 4 13 16 21 21 21 13z
m374 -11 c3 -9 0 -15 -8 -15 -8 0 -16 7 -20 15 -3 9 0 15 8 15 8 0 16 -7 20
-15z m384 3 c-5 -15 -35 -19 -35 -4 0 7 9 13 19 13 11 1 18 -3 16 -9z m762 2
c0 -5 -2 -10 -4 -10 -3 0 -8 5 -11 10 -3 6 -1 10 4 10 6 0 11 -4 11 -10z m190
0 c0 -5 -4 -10 -9 -10 -6 0 -13 5 -16 10 -3 6 1 10 9 10 9 0 16 -4 16 -10z
m180 -5 c0 -8 -2 -15 -4 -15 -2 0 -6 7 -10 15 -3 8 -1 15 4 15 6 0 10 -7 10
-15z m-9823 -1 c-3 -3 -12 -4 -19 -1 -8 3 -5 6 6 6 11 1 17 -2 13 -5z m858
-13 c-3 -6 -11 -11 -16 -11 -5 0 -4 6 3 14 14 16 24 13 13 -3z m1472 -1 c3
-10 2 -11 -4 -4 -4 6 -15 14 -23 17 -11 5 -9 6 4 4 11 -1 21 -9 23 -17z m230
14 c-3 -3 -12 -4 -19 -1 -8 3 -5 6 6 6 11 1 17 -2 13 -5z m858 -13 c-3 -6 -11
-11 -16 -11 -5 0 -4 6 3 14 14 16 24 13 13 -3z m2560 0 c-3 -6 -11 -11 -16
-11 -5 0 -4 6 3 14 14 16 24 13 13 -3z m1472 -1 c3 -10 2 -11 -4 -4 -4 6 -15
14 -23 17 -11 5 -9 6 4 4 11 -1 21 -9 23 -17z m230 14 c-3 -3 -12 -4 -19 -1
-8 3 -5 6 6 6 11 1 17 -2 13 -5z m858 -13 c-3 -6 -11 -11 -16 -11 -5 0 -4 6 3
14 14 16 24 13 13 -3z m1472 -1 c3 -10 2 -11 -4 -4 -4 6 -15 14 -23 17 -11 5
-9 6 4 4 11 -1 21 -9 23 -17z m-8322 -10 c3 -5 1 -10 -4 -10 -6 0 -11 5 -11
10 0 6 2 10 4 10 3 0 8 -4 11 -10z m2560 0 c3 -5 1 -10 -4 -10 -6 0 -11 5 -11
10 0 6 2 10 4 10 3 0 8 -4 11 -10z m2560 0 c3 -5 1 -10 -4 -10 -6 0 -11 5 -11
10 0 6 2 10 4 10 3 0 8 -4 11 -10z m2560 0 c3 -5 1 -10 -4 -10 -6 0 -11 5 -11
10 0 6 2 10 4 10 3 0 8 -4 11 -10z m-7390 -18 c-3 -3 -11 0 -18 7 -9 10 -8 11
6 5 10 -3 15 -9 12 -12z m5120 0 c-3 -3 -11 0 -18 7 -9 10 -8 11 6 5 10 -3 15
-9 12 -12z m2560 0 c-3 -3 -11 0 -18 7 -9 10 -8 11 6 5 10 -3 15 -9 12 -12z"/>
<path d="M627 8233 c6 -16 5 -16 -10 -4 -10 8 -20 11 -23 8 -3 -3 4 -10 15
-17 16 -8 20 -17 15 -38 l-5 -27 20 24 c15 17 21 19 21 8 0 -8 -6 -17 -12 -19
-8 -3 -4 -9 10 -17 14 -7 22 -8 22 -1 0 5 -4 10 -10 10 -5 0 -6 8 -3 17 4 9 8
12 10 6 2 -6 14 -9 26 -6 18 4 19 3 7 -6 -8 -6 -10 -11 -4 -11 6 0 17 7 24 15
9 10 9 15 1 15 -6 0 -11 5 -11 11 0 5 5 7 12 3 7 -4 8 -3 4 5 -6 9 -11 9 -22
0 -11 -9 -14 -8 -14 2 0 9 -3 10 -11 2 -14 -14 -59 -4 -53 12 3 7 1 16 -5 20
-7 4 -8 -1 -4 -12z"/>
<path d="M754 8230 c4 -31 45 -57 72 -45 10 4 27 7 37 6 9 -1 17 2 17 7 0 6
-15 12 -34 14 -19 2 -34 0 -33 -5 1 -5 -4 -12 -11 -14 -8 -3 -10 1 -6 11 3 9
1 16 -5 16 -6 0 -11 -6 -11 -12 -1 -7 -7 1 -15 17 -13 28 -13 28 -11 5z"/>
<path d="M1187 8237 c12 -19 9 -41 -7 -54 -9 -7 -10 -12 -4 -13 6 0 17 7 24
15 7 8 9 15 4 15 -4 0 -3 5 4 12 17 17 15 25 -8 31 -14 3 -18 1 -13 -6z"/>
<path d="M2420 8246 c0 -2 8 -10 18 -17 15 -13 16 -12 3 4 -13 16 -21 21 -21
13z"/>
<path d="M3187 8233 c6 -16 5 -16 -10 -4 -10 8 -20 11 -23 8 -3 -3 4 -10 15
-17 16 -8 20 -17 15 -38 l-5 -27 20 24 c15 17 21 19 21 8 0 -8 -6 -17 -12 -19
-8 -3 -4 -9 10 -17 14 -7 22 -8 22 -1 0 5 -4 10 -10 10 -5 0 -6 8 -3 17 4 9 8
12 10 6 2 -6 14 -9 26 -6 18 4 19 3 7 -6 -8 -6 -10 -11 -4 -11 6 0 17 7 24 15
9 10 9 15 1 15 -6 0 -11 5 -11 11 0 5 5 7 12 3 7 -4 8 -3 4 5 -6 9 -11 9 -22
0 -11 -9 -14 -8 -14 2 0 9 -3 10 -11 2 -14 -14 -59 -4 -53 12 3 7 1 16 -5 20
-7 4 -8 -1 -4 -12z"/>
<path d="M3314 8230 c4 -31 45 -57 72 -45 10 4 27 7 37 6 9 -1 17 2 17 7 0 6
-15 12 -34 14 -19 2 -34 0 -33 -5 1 -5 -4 -12 -11 -14 -8 -3 -10 1 -6 11 3 9
1 16 -5 16 -6 0 -11 -6 -11 -12 -1 -7 -7 1 -15 17 -13 28 -13 28 -11 5z"/>
<path d="M3747 8237 c12 -19 9 -41 -7 -54 -9 -7 -10 -12 -4 -13 6 0 17 7 24
15 7 8 9 15 4 15 -4 0 -3 5 4 12 17 17 15 25 -8 31 -14 3 -18 1 -13 -6z"/>
<path d="M5746 8237 c3 -10 9 -15 12 -12 3 3 0 11 -7 18 -10 9 -11 8 -5 -6z"/>
<path d="M5874 8230 c4 -31 45 -57 72 -45 10 4 27 7 37 6 9 -1 17 2 17 7 0 6
-15 12 -34 14 -19 2 -34 0 -33 -5 1 -5 -4 -12 -11 -14 -8 -3 -10 1 -6 11 3 9
1 16 -5 16 -6 0 -11 -6 -11 -12 -1 -7 -7 1 -15 17 -13 28 -13 28 -11 5z"/>
<path d="M6307 8237 c12 -19 9 -41 -7 -54 -9 -7 -10 -12 -4 -13 6 0 17 7 24
15 7 8 9 15 4 15 -4 0 -3 5 4 12 17 17 15 25 -8 31 -14 3 -18 1 -13 -6z"/>
<path d="M7540 8246 c0 -2 8 -10 18 -17 15 -13 16 -12 3 4 -13 16 -21 21 -21
13z"/>
<path d="M8307 8233 c6 -16 5 -16 -10 -4 -10 8 -20 11 -23 8 -3 -3 4 -10 15
-17 16 -8 20 -17 15 -38 l-5 -27 20 24 c15 17 21 19 21 8 0 -8 -6 -17 -12 -19
-8 -3 -4 -9 10 -17 14 -7 22 -8 22 -1 0 5 -4 10 -10 10 -5 0 -6 8 -3 17 4 9 8
12 10 6 2 -6 14 -9 26 -6 18 4 19 3 7 -6 -8 -6 -10 -11 -4 -11 6 0 17 7 24 15
9 10 9 15 1 15 -6 0 -11 5 -11 11 0 5 5 7 12 3 7 -4 8 -3 4 5 -6 9 -11 9 -22
0 -11 -9 -14 -8 -14 2 0 9 -3 10 -11 2 -14 -14 -59 -4 -53 12 3 7 1 16 -5 20
-7 4 -8 -1 -4 -12z"/>
<path d="M8434 8230 c4 -31 45 -57 72 -45 10 4 27 7 37 6 9 -1 17 2 17 7 0 6
-15 12 -34 14 -19 2 -34 0 -33 -5 1 -5 -4 -12 -11 -14 -8 -3 -10 1 -6 11 3 9
1 16 -5 16 -6 0 -11 -6 -11 -12 -1 -7 -7 1 -15 17 -13 28 -13 28 -11 5z"/>
<path d="M8867 8237 c12 -19 9 -41 -7 -54 -9 -7 -10 -12 -4 -13 6 0 17 7 24
15 7 8 9 15 4 15 -4 0 -3 5 4 12 17 17 15 25 -8 31 -14 3 -18 1 -13 -6z"/>
<path d="M10100 8246 c0 -2 8 -10 18 -17 15 -13 16 -12 3 4 -13 16 -21 21 -21
13z"/>
<path d="M103 8217 c0 -12 1 -16 4 -9 4 9 8 10 18 2 10 -8 15 -8 20 0 4 6 4
14 1 17 -3 4 -6 0 -6 -7 0 -10 -5 -9 -18 3 -17 15 -18 15 -19 -6z"/>
<path d="M560 8231 c0 -5 7 -12 16 -15 14 -5 15 -4 4 9 -14 17 -20 19 -20 6z"/>
<path d="M826 8228 c3 -4 9 -8 15 -8 5 0 9 4 9 8 0 5 -7 9 -15 9 -8 0 -12 -4
-9 -9z"/>
<path d="M1331 8224 c0 -11 3 -14 6 -6 3 7 2 16 -1 19 -3 4 -6 -2 -5 -13z"/>
<path d="M1635 8230 c-3 -5 -1 -10 4 -10 6 0 11 5 11 10 0 6 -2 10 -4 10 -3 0
-8 -4 -11 -10z"/>
<path d="M1752 8225 c1 -11 -2 -31 -5 -45 -6 -20 -4 -19 8 5 12 26 14 27 15 8
0 -12 6 -24 13 -26 9 -4 8 -8 -3 -16 -11 -8 -11 -11 -2 -11 7 0 15 7 18 15 4
8 11 12 17 8 5 -3 7 -1 4 4 -4 6 0 13 8 17 16 6 21 36 5 36 -5 0 -7 -7 -4 -15
4 -8 2 -15 -2 -16 -5 0 -18 -2 -29 -4 -20 -4 -20 -4 -1 11 19 14 19 14 -2 14
-11 0 -25 8 -31 18 -9 15 -10 15 -9 -3z"/>
<path d="M2663 8217 c0 -12 1 -16 4 -9 4 9 8 10 18 2 10 -8 15 -8 20 0 4 6 4
14 1 17 -3 4 -6 0 -6 -7 0 -10 -5 -9 -18 3 -17 15 -18 15 -19 -6z"/>
<path d="M3120 8231 c0 -5 7 -12 16 -15 14 -5 15 -4 4 9 -14 17 -20 19 -20 6z"/>
<path d="M3386 8228 c3 -4 9 -8 15 -8 5 0 9 4 9 8 0 5 -7 9 -15 9 -8 0 -12 -4
-9 -9z"/>
<path d="M3891 8224 c0 -11 3 -14 6 -6 3 7 2 16 -1 19 -3 4 -6 -2 -5 -13z"/>
<path d="M4195 8230 c-3 -5 -1 -10 4 -10 6 0 11 5 11 10 0 6 -2 10 -4 10 -3 0
-8 -4 -11 -10z"/>
<path d="M4312 8225 c1 -11 -2 -31 -5 -45 -6 -20 -4 -19 8 5 12 26 14 27 15 8
0 -12 6 -24 13 -26 9 -4 8 -8 -3 -16 -11 -8 -11 -11 -2 -11 7 0 15 7 18 15 4
8 11 12 17 8 5 -3 7 -1 4 4 -4 6 0 13 8 17 16 6 21 36 5 36 -5 0 -7 -7 -4 -15
4 -8 2 -15 -2 -16 -5 0 -18 -2 -29 -4 -20 -4 -20 -4 -1 11 19 14 19 14 -2 14
-11 0 -25 8 -31 18 -9 15 -10 15 -9 -3z"/>
<path d="M4742 8228 c-17 -17 -15 -31 8 -46 22 -13 27 -33 8 -28 -7 1 -10 1
-5 -1 4 -3 4 -10 0 -16 -3 -7 4 -3 18 8 13 11 26 21 28 22 1 1 0 7 -4 13 -6 9
-10 9 -16 -1 -6 -11 -9 -10 -15 4 -10 26 0 30 33 14 32 -16 54 -12 47 8 -4 10
0 13 15 10 12 -2 21 1 21 7 0 5 -7 8 -15 4 -8 -3 -15 0 -15 7 0 7 -7 4 -15 -7
-11 -14 -21 -17 -42 -11 -15 3 -30 11 -33 16 -4 5 -11 4 -18 -3z"/>
<path d="M5946 8228 c3 -4 9 -8 15 -8 5 0 9 4 9 8 0 5 -7 9 -15 9 -8 0 -12 -4
-9 -9z"/>
<path d="M6451 8224 c0 -11 3 -14 6 -6 3 7 2 16 -1 19 -3 4 -6 -2 -5 -13z"/>
<path d="M6755 8230 c-3 -5 -1 -10 4 -10 6 0 11 5 11 10 0 6 -2 10 -4 10 -3 0
-8 -4 -11 -10z"/>
<path d="M6872 8225 c1 -11 -2 -31 -5 -45 -6 -20 -4 -19 8 5 12 26 14 27 15 8
0 -12 6 -24 13 -26 9 -4 8 -8 -3 -16 -11 -8 -11 -11 -2 -11 7 0 15 7 18 15 4
8 11 12 17 8 5 -3 7 -1 4 4 -4 6 0 13 8 17 16 6 21 36 5 36 -5 0 -7 -7 -4 -15
4 -8 2 -15 -2 -16 -5 0 -18 -2 -29 -4 -20 -4 -20 -4 -1 11 19 14 19 14 -2 14
-11 0 -25 8 -31 18 -9 15 -10 15 -9 -3z"/>
<path d="M7783 8217 c0 -12 1 -16 4 -9 4 9 8 10 18 2 10 -8 15 -8 20 0 4 6 4
14 1 17 -3 4 -6 0 -6 -7 0 -10 -5 -9 -18 3 -17 15 -18 15 -19 -6z"/>
<path d="M8240 8231 c0 -5 7 -12 16 -15 14 -5 15 -4 4 9 -14 17 -20 19 -20 6z"/>
<path d="M8506 8228 c3 -4 9 -8 15 -8 5 0 9 4 9 8 0 5 -7 9 -15 9 -8 0 -12 -4
-9 -9z"/>
<path d="M9011 8224 c0 -11 3 -14 6 -6 3 7 2 16 -1 19 -3 4 -6 -2 -5 -13z"/>
<path d="M9315 8230 c-3 -5 -1 -10 4 -10 6 0 11 5 11 10 0 6 -2 10 -4 10 -3 0
-8 -4 -11 -10z"/>
<path d="M9432 8225 c1 -11 -2 -31 -5 -45 -6 -20 -4 -19 8 5 12 26 14 27 15 8
0 -12 6 -24 13 -26 9 -4 8 -8 -3 -16 -11 -8 -11 -11 -2 -11 7 0 15 7 18 15 4
8 11 12 17 8 5 -3 7 -1 4 4 -4 6 0 13 8 17 16 6 21 36 5 36 -5 0 -7 -7 -4 -15
4 -8 2 -15 -2 -16 -5 0 -18 -2 -29 -4 -20 -4 -20 -4 -1 11 19 14 19 14 -2 14
-11 0 -25 8 -31 18 -9 15 -10 15 -9 -3z"/>
<path d="M161 8214 c0 -11 3 -14 6 -6 3 7 2 16 -1 19 -3 4 -6 -2 -5 -13z"/>
<path d="M285 8221 c-3 -5 -17 -8 -30 -5 -23 4 -24 3 -13 -15 7 -11 14 -18 17
-16 2 3 11 -1 19 -8 12 -9 14 -9 8 0 -4 7 -2 22 4 33 11 20 7 29 -5 11z"/>
<path d="M340 8215 c-7 -8 -16 -13 -20 -10 -4 3 -10 -2 -14 -10 -3 -8 -2 -15
2 -15 9 0 52 38 52 45 0 9 -7 5 -20 -10z"/>
<path d="M1096 8218 c3 -5 10 -6 15 -3 13 9 11 12 -6 12 -8 0 -12 -4 -9 -9z"/>
<path d="M1131 8216 c-15 -17 -10 -55 6 -49 10 4 11 9 2 19 -9 12 -7 14 12 12
14 -2 24 3 26 12 4 19 -31 24 -46 6z m34 -6 c3 -5 2 -10 -4 -10 -5 0 -13 5
-16 10 -3 6 -2 10 4 10 5 0 13 -4 16 -10z"/>
<path d="M2110 8221 c0 -6 9 -8 20 -6 11 2 20 0 20 -6 0 -5 -6 -9 -14 -9 -8 0
-17 -4 -20 -9 -3 -5 2 -8 12 -7 9 0 16 -5 15 -11 -3 -15 13 -17 22 -3 3 6 1
10 -4 10 -6 0 -10 10 -8 21 1 15 -4 23 -20 25 -13 2 -23 0 -23 -5z"/>
<path d="M2721 8214 c0 -11 3 -14 6 -6 3 7 2 16 -1 19 -3 4 -6 -2 -5 -13z"/>
<path d="M2845 8221 c-3 -5 -17 -8 -30 -5 -23 4 -24 3 -13 -15 7 -11 14 -18
17 -16 2 3 11 -1 19 -8 12 -9 14 -9 8 0 -4 7 -2 22 4 33 11 20 7 29 -5 11z"/>
<path d="M2900 8215 c-7 -8 -16 -13 -20 -10 -4 3 -10 -2 -14 -10 -3 -8 -2 -15
2 -15 9 0 52 38 52 45 0 9 -7 5 -20 -10z"/>
<path d="M3656 8218 c3 -5 10 -6 15 -3 13 9 11 12 -6 12 -8 0 -12 -4 -9 -9z"/>
<path d="M3691 8216 c-15 -17 -10 -55 6 -49 10 4 11 9 2 19 -9 12 -7 14 12 12
14 -2 24 3 26 12 4 19 -31 24 -46 6z m34 -6 c3 -5 2 -10 -4 -10 -5 0 -13 5
-16 10 -3 6 -2 10 4 10 5 0 13 -4 16 -10z"/>
<path d="M4670 8221 c0 -6 9 -8 20 -6 11 2 20 0 20 -6 0 -5 -6 -9 -14 -9 -8 0
-17 -4 -20 -9 -3 -5 2 -8 12 -7 9 0 16 -5 15 -11 -3 -15 13 -17 22 -3 3 6 1
10 -4 10 -6 0 -10 10 -8 21 1 15 -4 23 -20 25 -13 2 -23 0 -23 -5z"/>
<path d="M6216 8218 c3 -5 10 -6 15 -3 13 9 11 12 -6 12 -8 0 -12 -4 -9 -9z"/>
<path d="M6251 8216 c-15 -17 -10 -55 6 -49 10 4 11 9 2 19 -9 12 -7 14 12 12
14 -2 24 3 26 12 4 19 -31 24 -46 6z m34 -6 c3 -5 2 -10 -4 -10 -5 0 -13 5
-16 10 -3 6 -2 10 4 10 5 0 13 -4 16 -10z"/>
<path d="M7230 8221 c0 -6 9 -8 20 -6 11 2 20 0 20 -6 0 -5 -6 -9 -14 -9 -8 0
-17 -4 -20 -9 -3 -5 2 -8 12 -7 9 0 16 -5 15 -11 -3 -15 13 -17 22 -3 3 6 1
10 -4 10 -6 0 -10 10 -8 21 1 15 -4 23 -20 25 -13 2 -23 0 -23 -5z"/>
<path d="M7841 8214 c0 -11 3 -14 6 -6 3 7 2 16 -1 19 -3 4 -6 -2 -5 -13z"/>
<path d="M7965 8221 c-3 -5 -17 -8 -30 -5 -23 4 -24 3 -13 -15 7 -11 14 -18
17 -16 2 3 11 -1 19 -8 12 -9 14 -9 8 0 -4 7 -2 22 4 33 11 20 7 29 -5 11z"/>
<path d="M8020 8215 c-7 -8 -16 -13 -20 -10 -4 3 -10 -2 -14 -10 -3 -8 -2 -15
2 -15 9 0 52 38 52 45 0 9 -7 5 -20 -10z"/>
<path d="M8776 8218 c3 -5 10 -6 15 -3 13 9 11 12 -6 12 -8 0 -12 -4 -9 -9z"/>
<path d="M8811 8216 c-15 -17 -10 -55 6 -49 10 4 11 9 2 19 -9 12 -7 14 12 12
14 -2 24 3 26 12 4 19 -31 24 -46 6z m34 -6 c3 -5 2 -10 -4 -10 -5 0 -13 5
-16 10 -3 6 -2 10 4 10 5 0 13 -4 16 -10z"/>
<path d="M9790 8221 c0 -6 9 -8 20 -6 11 2 20 0 20 -6 0 -5 -6 -9 -14 -9 -8 0
-17 -4 -20 -9 -3 -5 2 -8 12 -7 9 0 16 -5 15 -11 -3 -15 13 -17 22 -3 3 6 1
10 -4 10 -6 0 -10 10 -8 21 1 15 -4 23 -20 25 -13 2 -23 0 -23 -5z"/>
<path d="M1063 8204 c-3 -9 3 -24 17 -37 13 -12 20 -16 16 -9 -4 6 -2 12 3 12
6 0 11 5 11 12 0 6 -3 9 -6 5 -8 -8 -33 16 -27 26 2 4 2 7 -2 7 -3 0 -8 -7
-12 -16z"/>
<path d="M1921 8211 c-9 -6 -10 -11 -2 -15 13 -8 31 1 31 15 0 11 -11 11 -29
0z"/>
<path d="M3623 8204 c-3 -9 3 -24 17 -37 13 -12 20 -16 16 -9 -4 6 -2 12 3 12
6 0 11 5 11 12 0 6 -3 9 -6 5 -8 -8 -33 16 -27 26 2 4 2 7 -2 7 -3 0 -8 -7
-12 -16z"/>
<path d="M4481 8211 c-9 -6 -10 -11 -2 -15 13 -8 31 1 31 15 0 11 -11 11 -29
0z"/>
<path d="M5807 8212 c-4 -6 -15 -8 -25 -5 -13 4 -13 2 3 -10 11 -9 28 -17 38
-17 12 0 16 -4 11 -12 -5 -8 -1 -7 10 2 11 8 14 16 7 18 -6 2 -11 8 -11 13 0
6 5 7 12 3 7 -4 8 -3 4 5 -6 9 -11 9 -21 1 -10 -8 -14 -8 -17 2 -3 9 -6 9 -11
0z"/>
<path d="M6183 8204 c-3 -9 3 -24 17 -37 13 -12 20 -16 16 -9 -4 6 -2 12 3 12
6 0 11 5 11 12 0 6 -3 9 -6 5 -8 -8 -33 16 -27 26 2 4 2 7 -2 7 -3 0 -8 -7
-12 -16z"/>
<path d="M7041 8211 c-9 -6 -10 -11 -2 -15 13 -8 31 1 31 15 0 11 -11 11 -29
0z"/>
<path d="M8743 8204 c-3 -9 3 -24 17 -37 13 -12 20 -16 16 -9 -4 6 -2 12 3 12
6 0 11 5 11 12 0 6 -3 9 -6 5 -8 -8 -33 16 -27 26 2 4 2 7 -2 7 -3 0 -8 -7
-12 -16z"/>
<path d="M9601 8211 c-9 -6 -10 -11 -2 -15 13 -8 31 1 31 15 0 11 -11 11 -29
0z"/>
<path d="M2078 8193 c7 -3 16 -2 19 1 4 3 -2 6 -13 5 -11 0 -14 -3 -6 -6z"/>
<path d="M4638 8193 c7 -3 16 -2 19 1 4 3 -2 6 -13 5 -11 0 -14 -3 -6 -6z"/>
<path d="M7198 8193 c7 -3 16 -2 19 1 4 3 -2 6 -13 5 -11 0 -14 -3 -6 -6z"/>
<path d="M9758 8193 c7 -3 16 -2 19 1 4 3 -2 6 -13 5 -11 0 -14 -3 -6 -6z"/>
<path d="M749 8183 c0 -5 -2 -16 -4 -26 -3 -14 -1 -16 10 -7 8 6 11 18 8 26
-6 15 -13 19 -14 7z"/>
<path d="M3309 8183 c0 -5 -2 -16 -4 -26 -3 -14 -1 -16 10 -7 8 6 11 18 8 26
-6 15 -13 19 -14 7z"/>
<path d="M5869 8183 c0 -5 -2 -16 -4 -26 -3 -14 -1 -16 10 -7 8 6 11 18 8 26
-6 15 -13 19 -14 7z"/>
<path d="M8429 8183 c0 -5 -2 -16 -4 -26 -3 -14 -1 -16 10 -7 8 6 11 18 8 26
-6 15 -13 19 -14 7z"/>
<path d="M420 8170 c0 -5 10 -10 23 -10 18 0 19 2 7 10 -19 13 -30 13 -30 0z"/>
<path d="M880 8169 c0 -5 5 -7 10 -4 6 3 10 8 10 11 0 2 -4 4 -10 4 -5 0 -10
-5 -10 -11z"/>
<path d="M2980 8170 c0 -5 10 -10 23 -10 18 0 19 2 7 10 -19 13 -30 13 -30 0z"/>
<path d="M3440 8169 c0 -5 5 -7 10 -4 6 3 10 8 10 11 0 2 -4 4 -10 4 -5 0 -10
-5 -10 -11z"/>
<path d="M6000 8169 c0 -5 5 -7 10 -4 6 3 10 8 10 11 0 2 -4 4 -10 4 -5 0 -10
-5 -10 -11z"/>
<path d="M8100 8170 c0 -5 10 -10 23 -10 18 0 19 2 7 10 -19 13 -30 13 -30 0z"/>
<path d="M8560 8169 c0 -5 5 -7 10 -4 6 3 10 8 10 11 0 2 -4 4 -10 4 -5 0 -10
-5 -10 -11z"/>
<path d="M946 8155 c-3 -8 -1 -15 4 -15 6 0 10 6 10 13 0 8 4 7 10 -3 8 -13
10 -12 10 3 0 21 -26 23 -34 2z"/>
<path d="M3506 8155 c-3 -8 -1 -15 4 -15 6 0 10 6 10 13 0 8 4 7 10 -3 8 -13
10 -12 10 3 0 21 -26 23 -34 2z"/>
<path d="M6066 8155 c-3 -8 -1 -15 4 -15 6 0 10 6 10 13 0 8 4 7 10 -3 8 -13
10 -12 10 3 0 21 -26 23 -34 2z"/>
<path d="M8626 8155 c-3 -8 -1 -15 4 -15 6 0 10 6 10 13 0 8 4 7 10 -3 8 -13
10 -12 10 3 0 21 -26 23 -34 2z"/>
<path d="M287 8149 c7 -7 15 -10 18 -7 3 3 -2 9 -12 12 -14 6 -15 5 -6 -5z"/>
<path d="M900 8149 c0 -5 5 -7 10 -4 6 3 10 8 10 11 0 2 -4 4 -10 4 -5 0 -10
-5 -10 -11z"/>
<path d="M2847 8149 c7 -7 15 -10 18 -7 3 3 -2 9 -12 12 -14 6 -15 5 -6 -5z"/>
<path d="M3460 8149 c0 -5 5 -7 10 -4 6 3 10 8 10 11 0 2 -4 4 -10 4 -5 0 -10
-5 -10 -11z"/>
<path d="M6020 8149 c0 -5 5 -7 10 -4 6 3 10 8 10 11 0 2 -4 4 -10 4 -5 0 -10
-5 -10 -11z"/>
<path d="M7967 8149 c7 -7 15 -10 18 -7 3 3 -2 9 -12 12 -14 6 -15 5 -6 -5z"/>
<path d="M8580 8149 c0 -5 5 -7 10 -4 6 3 10 8 10 11 0 2 -4 4 -10 4 -5 0 -10
-5 -10 -11z"/>
<path d="M1857 8143 c-3 -5 -2 -15 2 -22 5 -7 11 -9 14 -4 3 5 2 15 -2 22 -5
7 -11 9 -14 4z"/>
<path d="M1956 8142 c-2 -4 4 -8 15 -8 10 0 19 4 19 8 0 4 -6 8 -14 8 -8 0
-17 -4 -20 -8z"/>
<path d="M4417 8143 c-3 -5 -2 -15 2 -22 5 -7 11 -9 14 -4 3 5 2 15 -2 22 -5
7 -11 9 -14 4z"/>
<path d="M4516 8142 c-2 -4 4 -8 15 -8 10 0 19 4 19 8 0 4 -6 8 -14 8 -8 0
-17 -4 -20 -8z"/>
<path d="M6977 8143 c-3 -5 -2 -15 2 -22 5 -7 11 -9 14 -4 3 5 2 15 -2 22 -5
7 -11 9 -14 4z"/>
<path d="M7076 8142 c-2 -4 4 -8 15 -8 10 0 19 4 19 8 0 4 -6 8 -14 8 -8 0
-17 -4 -20 -8z"/>
<path d="M9537 8143 c-3 -5 -2 -15 2 -22 5 -7 11 -9 14 -4 3 5 2 15 -2 22 -5
7 -11 9 -14 4z"/>
<path d="M9636 8142 c-2 -4 4 -8 15 -8 10 0 19 4 19 8 0 4 -6 8 -14 8 -8 0
-17 -4 -20 -8z"/>
<path d="M4537 5164 l-658 -506 178 -123 c98 -67 183 -119 188 -115 111 84
1275 987 1288 999 17 16 9 23 -158 134 -96 64 -176 117 -177 117 -2 0 -299
-228 -661 -506z"/>
<path d="M5529 4897 l-966 -711 181 -128 c99 -71 186 -126 192 -124 6 2 435
330 952 727 l940 723 -164 113 c-90 62 -165 113 -167 112 -1 0 -437 -321 -968
-712z"/>
</g>
</svg>
